HIERARCHY
ROOT Spine
{
    OFFSET 0.0 0.0 -0.0
    CHANNELS 6 Xposition Yposition Zposition Zrotation Xrotation Yrotation
    JOINT ShoulderCenter
    {
        OFFSET 0.0 33.01592254638672 0.0
        CHANNELS 3 Zrotation Xrotation Yrotation
        JOINT LeftShoulder
        {
            OFFSET 18.589237213134766 0.0 0.0
            CHANNELS 3 Zrotation Xrotation Yrotation
            JOINT LeftElbow
            {
                OFFSET 28.857070922851562 0.0 0.0
                CHANNELS 3 Zrotation Xrotation Yrotation
                JOINT LeftHand
                {
                    OFFSET 32.59867858886719 0.0 0.0
                    CHANNELS 3 Zrotation Xrotation Yrotation
                    End Site
                    {
                        OFFSET 13.039470672607422 0.0 0.0
                    }
                }
            }
        }
        JOINT RightShoulder
        {
            OFFSET -18.589237213134766 0.0 0.0
            CHANNELS 3 Zrotation Xrotation Yrotation
            JOINT RightElbow
            {
                OFFSET -28.857070922851562 0.0 0.0
                CHANNELS 3 Zrotation Xrotation Yrotation
                JOINT RightHand
                {
                    OFFSET -32.59867858886719 0.0 0.0
                    CHANNELS 3 Zrotation Xrotation Yrotation
                    End Site
                    {
                        OFFSET -13.039470672607422 0.0 0.0
                    }
                }
            }
        }
        End Site
        {
            OFFSET 0.0 13.20637035369873 0.0
        }
    }
    JOINT LeftHip
    {
        OFFSET 16.093196186298105 -16.093196186298105 0.0
        CHANNELS 3 Zrotation Xrotation Yrotation
        JOINT LeftKnee
        {
            OFFSET 0.0 -41.18169403076172 0.0
            CHANNELS 3 Zrotation Xrotation Yrotation
            JOINT LeftFoot
            {
                OFFSET 0.0 -43.909549713134766 0.0
                CHANNELS 3 Zrotation Xrotation Yrotation
                End Site
                {
                    OFFSET 0.0 0.0 17.563819885253906
                }
            }
        }
    }
    JOINT RightHip
    {
        OFFSET -16.093196186298105 -16.093196186298105 0.0
        CHANNELS 3 Zrotation Xrotation Yrotation
        JOINT RightKnee
        {
            OFFSET 0.0 -41.18169403076172 0.0
            CHANNELS 3 Zrotation Xrotation Yrotation
            JOINT RightFoot
            {
                OFFSET 0.0 -43.909549713134766 0.0
                CHANNELS 3 Zrotation Xrotation Yrotation
                End Site
                {
                    OFFSET 0.0 0.0 17.563819885253906
                }
            }
        }
    }
}
MOTION
Frames: 6
Frame Time: 0.03333333333333333
49.29999923706055 4.5 50.80000305175781 0.17960714849992868 14.920160788791085 -6.337844649082662 -1.9584754144363094e-07 3.068307921811331e-06 2.1141919078992712 115.54242402504255 27.188199536402028 149.68941050581142 2.5364684036710767e-06 -2.135209358455683e-06 37.38105011992557 -6.559894030518502e-15 -2.385416011097637e-15 -1.3655522609592679e-31 -104.25377551780682 31.30026149355751 -153.60693073357393 2.5141886622222654e-06 -5.747172911565723e-06 -28.172026607108556 1.5902773407317582e-15 0.0 0.0 21.054095018793078 -50.224889589658005 97.23812994775956 40.857648874320134 9.63088165734651 -140.14807901007185 0.0 0.0 -1.764213924874294e-15 0.981869616589039 -51.89584130375221 -47.46903106074081 -33.0145069318056 22.952589660347506 80.59018544981137 -7.951386703658792e-16 4.9696166897867443e-17 6.087780444988763e-16
49.0 0.7000000476837158 52.79999923706055 -8.974988836425533e-08 15.80250630275668 -6.251138127379114 -2.0200540806800167e-07 2.2783271596376547e-06 2.8107014482737642 112.66547133644073 31.04505600615258 158.95412870806257 8.723820560754034e-07 -8.295122074955936e-07 34.884432958487764 -2.1866313435061676e-15 -3.1805546814635168e-15 -1.5902773407317584e-15 -100.66593013784019 32.618921868773384 -161.67501521725154 6.861486826463736e-07 -6.950162479386333e-06 -24.112928882297005 -9.54166404439055e-15 -3.1805546814635168e-15 -2.648343778830095e-31 27.33872591043655 -54.905927942785965 106.19814840513985 51.808383963180326 9.455419033037465 -153.62302821444774 -1.987846675914698e-16 1.5902773407317584e-15 1.0311954631307496e-15 2.370408071711064 -58.54067887255779 -50.33128361072565 -46.687708003761834 25.820785565264586 102.79103831837955 9.93923337957349e-17 1.7780628397907134e-34 2.0499668845370324e-16
49.099998474121094 -1.2000000476837158 54.900001525878906 0.35921773322730005 15.087523079044011 -4.79633557243298 1.9201062616471686e-07 -2.08472699738342e-06 1.666204675543996 107.49505974920027 28.809793264189878 165.32867765391748 2.383315117135258e-06 2.8193732208790426e-06 38.15979166876402 -5.963540027744093e-16 4.138037154422024e-33 -7.951386703658791e-16 -97.82439724351083 28.62713577475327 -167.07317307892635 -2.7254997172407345e-06 1.21877536063732e-06 -27.23459103571958 -5.168401357378216e-15 -4.770832022195277e-15 3.1805546814635176e-15 27.667196627942033 -54.45801745327467 108.16758433439978 55.60586071849352 10.392540767835149 -156.6375450278948 1.1927080055488188e-15 -1.5902773407317584e-15 -2.087239009710433e-15 -3.15281380136189 -58.10135739426875 -55.928509564771836 -50.260847304473714 28.67196472224141 112.50336292553446 3.9756933518293955e-16 -9.939233379573487e-17 3.031466180769914e-15
49.099998474121094 -1.5 56.80000305175781 0.35697978932841246 13.825806955056333 -3.4949644766356758 2.7073901062371605e-08 2.3165245165100193e-07 0.7856171180492925 104.29207461692354 20.366541206992274 168.9528784259438 4.388686518893952e-06 -1.2805532917502998e-06 46.34878066711902 -6.758678698109972e-15 7.951386703658789e-16 3.1805546814635164e-15 -96.68364516194329 19.156858965958026 -169.41431191025617 -3.310389419296296e-06 3.2760761979726257e-06 -35.71612468817697 9.044702375411874e-15 3.9756933518293945e-16 -1.1927080055488186e-15 25.070035450835483 -51.541647520045615 104.46822091917417 54.99757901718367 12.264227650852414 -154.91269662388697 1.7241821476758432e-33 -3.975693351829396e-16 4.969616689786745e-16 -7.080886427908833 -54.07294420244338 -59.80232192258926 -48.72687557343965 29.697110998145526 115.98603442310856 -1.5690057543850172e-32 -1.987846675914698e-16 -9.044702375411875e-15
49.20000076293945 -0.8999999761581421 58.20000076293945 0.35697972201559897 13.488730698982959 -3.9525655450309425 4.632859219695936e-08 -3.9924569288454483e-07 1.5386917093383676 102.50776486255108 13.947010667741104 170.83966541476875 -1.9216926499110043e-06 -3.2350849003989017e-06 57.89609019351731 0.0 -1.5902773407317584e-15 0.0 -96.5998549030327 13.84586881070471 -171.64164540683444 -2.314273018848631e-06 -3.441717334346254e-06 -46.34886867827391 2.385416011097637e-15 -7.951386703658791e-16 1.6552148617688095e-32 25.174756424820508 -49.88140565035444 105.63622373092002 54.539555796313145 11.714131970672444 -156.28789450656774 0.0 0.0 0.0 -6.294592278160541 -52.151575175651054 -57.85728676626097 -47.20198967175828 29.689345469532093 114.87849333955923 0.0 0.0 -9.93923337957349e-16
49.29999923706055 0.6000000238418579 59.29999923706055 0.35697975581618874 13.657385046169455 -3.8512659864850227 -2.531881186460595e-08 7.104995611547748e-07 0.9490856426260955 101.05710676241104 11.069536261638314 172.61807163563458 7.766579602447775e-07 -7.644282957021647e-07 67.91165111146718 6.361109362927032e-15 -3.1805546814635156e-15 6.361109362927032e-15 -96.6693115224988 11.316737810054757 -174.86217819131278 -3.5329561403915253e-06 5.536560561010108e-06 -54.68402850164368 -1.5902773407317584e-15 0.0 0.0 23.13732772604073 -48.78452487440911 102.30968506845036 52.35340009521785 12.04257890058622 -154.83252627254006 0.0 0.0 9.14409470920761e-15 -5.462326679845825 -50.580057793562446 -55.1262762011093 -44.50002376425503 29.625395406971016 111.5006329745352 7.951386703658792e-16 -1.987846675914698e-16 6.957463365701443e-16
